# xmcd
#
# Track frame offsets:
#	150
#	14712
#	28900
#	48208
#	61702
#	83147
#	93565
#	110961
#
# Disc length: 1640 seconds
# Revision: 0
# Processed by: cddbd v1.5.2PL0 Copyright (c) Steve Scherf et al.
# Submitted via: dBpowerAMP V12.0
#
DISCID=67066608
DTITLE=The Rogue River String Band - The Rogue River StringBand
DYEAR=2007
DGENRE=Bluegrass
TTITLE0=Willie's Ramble
TTITLE1=Brenham
TTITLE2=Rollin' Good Guitar
TTITLE3=The Bartender's Lament
TTITLE4=Great Divide
TTITLE5=Born Lonely
TTITLE6=I'll Walk You Home
TTITLE7=Ain't Gonna Wait
EXTD=
EXTT0=
EXTT1=
EXTT2=
EXTT3=
EXTT4=
EXTT5=
EXTT6=
EXTT7=
PLAYORDER=
